# xmcd CD database file
# Copyright (C) 1997 Ti Kan
# 
# Track frame offsets:
#     150
#     14209
#     30480
#     45682
#     59557
#     73482
#     88720
#     101927
#     116754
#     133612
#     148990
#     163595
# 
# Disc length: 2345 seconds
# 
# Revision: 1
# Processed by: cddbd v1.4b41PL1 Copyright (c) Steve Scherf et al.
# Submitted via: DiscPlay 4.0.4
# 
DISCID=be09270c
DTITLE=LEE GREENWOOD - BEST OF
DYEAR=1900
DGENRE=
TTITLE0=I. O. U.
TTITLE1=SOMEBODY'S GONNA LOVE YOU
TTITLE2=DIXIE ROAD
TTITLE3=DON'T UNDERESTIMATE MY LOVE FOR YOU
TTITLE4=HEARTS AREN'T MADE TO BREAK
TTITLE5=GOING, GOING GONE
TTITLE6=TOUCH AND GO CRAZY
TTITLE7=MORNIN' RIDE
TTITLE8=FOOLS GOLD
TTITLE9=I DON'T MIND THE THORNS
TTITLE10=GOD BLESS THE USA
TTITLE11=YOU'LL NEVER WALK ALONE
EXTD=
EXTT0=
EXTT1=
EXTT2=
EXTT3=
EXTT4=
EXTT5=
EXTT6=
EXTT7=
EXTT8=
EXTT9=
EXTT10=
EXTT11=
PLAYORDER=
